<?xml version="1.0" encoding="UTF-8"?>
<svg xmlns="http://www.w3.org/2000/svg" xmlns:xlink="http://www.w3.org/1999/xlink" viewBox="0 0 128 128" width="128px" height="128px">
<g id="surface192893966">
<path style=" stroke:none;fill-rule:nonzero;fill:rgb(100%,100%,100%);fill-opacity:1;" d="M 59.484375 13.96875 C 53.359375 14.003906 47.238281 15.335938 41.824219 18.078125 C 29.453125 24.347656 21.175781 38.417969 25.960938 60.09375 C 26.089844 60.816406 26.601562 61.414062 27.300781 61.644531 C 28 61.875 28.765625 61.707031 29.300781 61.203125 C 29.835938 60.699219 30.054688 59.941406 29.863281 59.230469 C 25.355469 38.808594 32.703125 27.183594 43.632812 21.648438 C 54.5625 16.113281 69.457031 17.113281 79.5 23.433594 C 79.84375 23.648438 80.242188 23.753906 80.644531 23.738281 C 85.703125 23.542969 89.589844 25.105469 92.675781 27.796875 C 95.761719 30.488281 98.015625 34.378906 99.363281 38.808594 C 101.546875 45.988281 101.128906 54.398438 98.695312 60.867188 C 96.414062 55.566406 92.03125 50.375 86.429688 44.636719 C 86.53125 44.457031 86.722656 44.367188 86.820312 44.183594 C 88.96875 40.054688 89.429688 36.875 88.324219 34.453125 C 87.21875 32.03125 84.527344 31.117188 82.335938 31.554688 C 80.144531 31.992188 78.054688 33.652344 77.519531 36.214844 C 76.984375 38.777344 78.125 41.753906 81.113281 44.6875 C 81.136719 44.710938 81.148438 44.730469 81.171875 44.753906 C 79.007812 47.25 76.234375 49.269531 72.492188 50.679688 C 67.539062 52.546875 61.515625 53.667969 55.492188 54.863281 C 49.46875 56.058594 43.441406 57.3125 38.359375 59.679688 C 33.277344 62.046875 29.054688 65.707031 27.363281 71.390625 C 26.433594 74.519531 26.78125 78.054688 28.046875 81.265625 C 29.1875 84.164062 31.21875 86.710938 33.898438 88.4375 C 36.097656 97.203125 39.289062 104.804688 44.234375 110.3125 C 49.308594 115.960938 56.269531 119.324219 65.105469 119.324219 C 75.785156 119.324219 83.25 112.488281 87.953125 105.488281 C 92.292969 99.027344 94.28125 92.828125 94.972656 90.199219 C 99.160156 88.523438 101.191406 84.722656 101.800781 81.3125 C 102.464844 77.585938 101.953125 74.378906 101.640625 73.121094 C 101.484375 72.410156 100.953125 71.84375 100.253906 71.636719 C 99.554688 71.433594 98.800781 71.621094 98.285156 72.132812 C 97.765625 72.640625 97.566406 73.394531 97.761719 74.09375 C 97.855469 74.476562 98.375 77.726562 97.859375 80.613281 C 97.34375 83.5 96.195312 85.945312 92.828125 86.847656 C 92.113281 87.039062 91.566406 87.609375 91.398438 88.328125 C 91.070312 89.746094 88.929688 96.863281 84.632812 103.257812 C 80.335938 109.652344 74.089844 115.324219 65.105469 115.324219 C 57.25 115.324219 51.625 112.554688 47.210938 107.640625 C 42.796875 102.726562 39.679688 95.535156 37.570312 86.855469 C 37.433594 86.300781 37.070312 85.832031 36.566406 85.5625 C 34.464844 84.445312 32.746094 82.285156 31.769531 79.800781 C 30.792969 77.316406 30.59375 74.558594 31.195312 72.53125 C 32.511719 68.101562 35.585938 65.386719 40.046875 63.308594 C 44.507812 61.230469 50.28125 59.976562 56.269531 58.789062 C 62.257812 57.601562 68.453125 56.476562 73.902344 54.421875 C 77.832031 52.941406 81.105469 50.601562 83.800781 47.679688 C 90.679688 54.785156 95.175781 60.589844 96.484375 66.644531 C 96.65625 67.433594 97.289062 68.042969 98.082031 68.1875 C 98.878906 68.332031 99.683594 67.980469 100.121094 67.300781 C 105.207031 59.375 106.226562 47.621094 103.191406 37.644531 C 101.671875 32.65625 99.09375 28.085938 95.304688 24.78125 C 91.675781 21.617188 86.847656 19.796875 81.183594 19.84375 C 75.585938 16.425781 68.925781 14.402344 62.109375 14.03125 C 61.234375 13.984375 60.359375 13.964844 59.484375 13.96875 Z M 83.652344 35.414062 C 84.132812 35.410156 84.453125 35.601562 84.683594 36.109375 C 84.957031 36.710938 84.882812 38.550781 83.605469 41.410156 C 81.640625 39.3125 81.269531 37.808594 81.433594 37.03125 C 81.609375 36.195312 82.324219 35.632812 83.117188 35.476562 C 83.316406 35.4375 83.492188 35.414062 83.652344 35.414062 Z M 83.652344 35.414062 "/>
</g>
</svg>
